# xmcd
#
# Track frame offsets:
#	150
#	19569
#	35349
#	58521
#
# Disc length: 974 seconds
#
# Revision: 0
# Processed by: cddbd v1.4PL0 Copyright (c) Steve Scherf et al.
# Submitted via: audiograbber 1.81.01
#
DISCID=2503cc04
DTITLE=Kasey Chambers - Million Tears [single]
DYEAR=2002
DGENRE=Country
TTITLE0=Million Tears
TTITLE1=Runaway Train (live)
TTITLE2=The Captain (live acoustic version)
TTITLE3=Not Pretty Enough (live acoustic version)
EXTD=
EXTT0=
EXTT1=
EXTT2=
EXTT3=
PLAYORDER=
